<svg xmlns="http://www.w3.org/2000/svg" viewBox="0 0 250 250" width="250" height="250">
  <path fill="#FF2D20" d="M174.9 78.8c-4.4-4.4-11.4-4.4-15.8 0l-45.5 45.5-45.4-45.5c-4.4-4.4-11.4-4.4-15.8 0l-45.5 45.5c-4.4 4.4-4.4 11.4 0 15.8l45.5 45.5c4.4 4.4 11.4 4.4 15.8 0l45.4-45.5 45.5 45.5c4.4 4.4 11.4 4.4 15.8 0l45.5-45.5c4.4-4.4 4.4-11.4 0-15.8l-45.5-45.5zM125 188.5c-3.7 3.7-9.6 3.7-13.3 0L64.5 144.4c-3.7-3.7-3.7-9.6 0-13.3l45.5-45.5c3.7-3.7 9.6-3.7 13.3 0l45.5 45.5c3.7 3.7 3.7 9.6 0 13.3z"/>
</svg>
