<svg xmlns="http://www.w3.org/2000/svg" viewBox="0 0 128 128">
  <path fill="#4FAA41" d="M82.803 34.23c-2.604-8.108-6.781-15.284-12.667-21.459-1.488-1.562-3.142-2.993-4.18-4.936-.656-1.23-1.281-2.477-1.92-3.715l-.406-1.021-.113.402c-.053 2.02-1.197 3.389-2.621 4.668-1.604 1.438-3.096 3-4.636 4.509l-4.736 6.229-3.829 7.042-2.561 6.915-.077.107c-1.409 4.629-2.104 9.389-2.445 14.195-.129 1.807.019 3.639.12 5.455.145 2.596.596 5.147 1.272 7.66 2.457 9.102 7.384 16.708 14.597 22.87 1.984 1.701 4.078 3.259 6.216 4.755 2.897 2.028 5.844 3.975 8.679 6.072 3.111 2.314 5.809 5.021 8.288 7.947.735.869 1.56 1.664 2.347 2.49.345.363.719.693 1.085 1.026l.167-.169c.331-.332.706-.777.963-1.186.509-.809 1.023-1.615 1.512-2.435 1.388-2.32 2.54-4.771 3.529-7.302 1.076-2.756 1.85-5.604 2.453-8.501 1.377-6.647 1.836-13.36 1.786-20.114-.015-2.022-.178-4.044-.24-6.066-.143-4.733-.711-9.411-1.917-13.998-.545-2.062-1.287-4.069-1.97-6.087-.681-2.019-1.492-3.959-2.673-5.755z"/>
</svg> 