<svg xmlns="http://www.w3.org/2000/svg" viewBox="0 0 128 128">
  <path fill="#6181B6" d="M64 33.039C30.26 33.039 2.906 46.901 2.906 64S30.26 94.961 64 94.961 125.094 81.099 125.094 64 97.74 33.039 64 33.039zM48.103 70.032c-1.458 1.364-3.077 1.927-4.86 2.507-1.783.581-4.052.461-6.811.461h-6.253l-1.733 10h-7.301l6.515-34h14.04c4.224 0 7.305 1.215 9.242 3.432 1.937 2.217 2.519 5.364 1.747 9.337-.319 1.637-.856 3.159-1.614 4.515a15.118 15.118 0 01-2.972 3.748zM69.414 73l6.514-34h7.297l-6.291 33.999H69.414zM111.472 52.872c-.754 3.9-2.293 7.084-4.62 9.556-2.327 2.472-5.037 3.708-8.131 3.708h-11.662l-2.895 15h-7.301l6.514-34h14.041c4.222 0 7.122 1.139 8.699 3.418 1.577 2.279 1.985 5.434 1.223 9.318h-.003z"/>
  <path fill="#FFF" d="M45.971 63.432c.222-1.522.025-2.647-.593-3.375-.618-.728-1.644-1.09-3.079-1.09h-5.453l-2.482 12.976h5.344c2.412 0 4.128-.533 5.145-1.602 1.017-1.068 1.63-2.858 1.837-5.371l.281-1.538zm41.714-10.432h-5.344l-2.482 12.976h5.344c2.412 0 4.128-.533 5.145-1.602 1.017-1.068 1.63-2.858 1.837-5.371.222-1.522.025-2.647-.593-3.375-.619-.728-1.645-1.09-3.08-1.09v-.538z"/>
</svg> 